<svg width="116" height="116" viewBox="0 0 116 116" fill="none" xmlns="http://www.w3.org/2000/svg">
<path fill-rule="evenodd" clip-rule="evenodd" d="M92.5164 107.581C91.7249 107.64 90.5278 107.64 88.1335 107.64C87.4711 107.64 87.1398 107.64 86.8477 107.632C79.6882 107.435 73.1118 103.638 69.3611 97.5365C69.2081 97.2875 69.052 97.0171 68.7398 96.4764L68.7396 96.4761L68.7392 96.4754C68.2598 95.645 68.02 95.2297 67.8373 94.9501C63.0536 87.6281 52.3261 87.6281 47.5424 94.9501C47.3596 95.2298 47.1198 95.6452 46.6401 96.4761C46.3278 97.017 46.1717 97.2875 46.0186 97.5365C42.268 103.638 35.6915 107.435 28.5321 107.632C28.2399 107.64 27.9087 107.64 27.2462 107.64C24.8519 107.64 23.6548 107.64 22.8633 107.581C7.9572 106.464 -1.14862 90.6923 5.33703 77.2247C5.68141 76.5096 6.25108 75.5229 7.39042 73.5495L27.379 38.9283C37.8433 20.8036 43.0754 11.7412 50.0881 9.04928C54.9819 7.17075 60.3979 7.17075 65.2916 9.04928C72.3043 11.7412 77.5365 20.8036 88.0008 38.9283L107.989 73.5494L107.99 73.5502C109.129 75.5231 109.698 76.5097 110.043 77.2247C116.528 90.6923 107.423 106.464 92.5164 107.581ZM62.4941 59.7555L62.4941 59.7556L64.2458 68.1831L64.2458 68.1831C64.6918 70.3289 64.9148 71.4018 64.5909 72.2314C64.3631 72.815 63.9582 73.3127 63.4331 73.6545C62.6868 74.1404 61.591 74.1404 59.3993 74.1404H55.9802C53.7886 74.1404 52.6927 74.1404 51.9464 73.6545C51.4214 73.3127 51.0165 72.815 50.7887 72.2314C50.4648 71.4018 50.6878 70.3289 51.1338 68.1831L51.1338 68.1831L52.8855 59.7556L52.8855 59.7555C53.1515 58.4758 53.2844 57.836 53.2333 57.3651C53.1814 56.8877 53.1649 56.8298 52.958 56.3965C52.7539 55.9691 51.9797 55.1523 50.4312 53.5189L50.4312 53.5188C48.7321 51.7264 47.6898 49.3051 47.6898 46.6404C47.6898 41.1176 52.167 36.6404 57.6898 36.6404C63.2126 36.6404 67.6898 41.1176 67.6898 46.6404C67.6898 49.3051 66.6475 51.7264 64.9484 53.5188C63.3999 55.1523 62.6257 55.9691 62.4216 56.3965C62.2147 56.8298 62.1982 56.8877 62.1463 57.3651C62.0951 57.836 62.2281 58.4758 62.4941 59.7555Z" fill="#D150FF"/>
</svg>
